# xmcd
#
# Track frame offsets:
#	150
#	12902
#	27191
#	41065
#	52799
#	65223
#	76912
#	89160
#	101335
#	113334
#	124950
#	137110
#	148675
#	162143
#	175671
#	186506
#	200095
#	214454
#	226640
#	238974
#	250331
#	263442
#	277427
#	288101
#	299370
#	312376
#	323672
#	334143
#	336453
#
# Disc length: 4543 seconds
#
# Revision: 0
# Processed by: cddbd v1.5.1PL0 Copyright (c) Steve Scherf et al.
# Submitted via: audiograbber 1.82.02
#
DISCID=be11bd1d
DTITLE=W. Lee O'Daniel - WS Chronicles Vol. 4 1933-1938
DYEAR=1900
DGENRE=Western Swing
TTITLE0=Bar X Cowboys: Blue Bonnet Governor
TTITLE1=W. Lee and His Light Crust Doughboys:My Million Dollar Smile
TTITLE2=W. Lee and His Light Crust Doughboys:Beautiful Texas
TTITLE3=W. Lee and His Hillbilly Boys: Please Pass The Biscuits Pappy
TTITLE4=W. Lee and His Light Crust Doughboys: Doughboy Rag
TTITLE5=W. Lee and His Hillbilly Boys: Who's Sorry Now
TTITLE6=W. Lee and His Hillbilly Boys: Hillbilly Stomp
TTITLE7=W. Lee and His Hillbilly Boys: Lonesome Road Blues
TTITLE8=W. Lee and His Hillbilly Boys: Old Yazoo
TTITLE9=W. Lee and His Hillbilly Boys: Roll On Mississippi Roll On
TTITLE10=W. Lee and His Hillbilly Boys: Rhythm and Romance
TTITLE11=W. Lee and His Hillbilly Boys: Don't Let The Deal Go Down
TTITLE12=W. Lee and His Hillbilly Boys: Everybody Kiss Your Partner
TTITLE13=W. Lee and His Light Crust Doughboys: Memories of Jimmy Rodgers
TTITLE14=W. Lee and His Hillbilly Boys: Dirty Hangover Blues
TTITLE15=W. Lee and His Hillbilly Boys: San Antonio
TTITLE16=W. Lee and His Light Crust Doughboys: Saturday Night Rag
TTITLE17=W. Lee and His Hillbilly Boys: Congratulate Me
TTITLE18=W. Lee and His Light Crust Doughboys: When They Baptized Sister Lucy Lee
TTITLE19=W. Lee and His Hillbilly Boys: Confessin'
TTITLE20=W. Lee and His Hillbilly Boys: All I Do Is Dream of You
TTITLE21=W. Lee and His Light Crust Doughboys: Milenberg Joys
TTITLE22=W. Lee and His Hillbilly Boys: So Tired Of Dreaming
TTITLE23=W. Lee and His Hillbilly Boys: Cross Patch
TTITLE24=W. Lee and His Light Crust Doughboys: Roll Up The Carpet
TTITLE25=W. Lee and His Hillbilly Boys: Baby Won't You Please Come Home
TTITLE26=W. Lee and His Hillbilly Boys: That Old Fashioned Way
TTITLE27=Carroll Hubbard: Please Pass The Biscuits Pappy
TTITLE28=O'Daniel radio show sign off
EXTD=
EXTT0=
EXTT1=
EXTT2=
EXTT3=
EXTT4=
EXTT5=
EXTT6=
EXTT7=
EXTT8=
EXTT9=
EXTT10=
EXTT11=
EXTT12=
EXTT13=
EXTT14=
EXTT15=
EXTT16=
EXTT17=
EXTT18=
EXTT19=
EXTT20=
EXTT21=
EXTT22=
EXTT23=
EXTT24=
EXTT25=
EXTT26=
EXTT27=
EXTT28=
PLAYORDER=
